<svg id="Layer_1" data-name="Layer 1" xmlns="http://www.w3.org/2000/svg" viewBox="0 0 395.69 146.96"><path d="M5.19,80.72,24.07,69.86c3,5.29,6.11,8.14,13.44,8.14,9.5,0,12.35-5.43,12.35-11.27V2.24H71.59V66.73c0,20.91-14.67,32.45-34.22,32.45C22.3,99.18,11.44,92.8,5.19,80.72Z" fill="#fff"/><path d="M86.52,66.6V2.24h21.72V64.7c0,7.19,3.4,13.3,14.94,13.3s14.93-6.11,14.93-13.3V2.24h21.73V66.6c0,20.36-15.75,32.58-36.66,32.58S86.52,87,86.52,66.6Z" fill="#fff"/><path d="M250.13,2.24v95h-16.3L197.18,45.69V97.28H175.45v-95h16.29L228.4,53.83V2.24Z" fill="#fff"/><path d="M288.14,2.24v95H266.42v-95Z" fill="#fff"/><path d="M360.1,82.35H324.8l-4.75,14.93H296.29l32.31-95h27.7l32.32,95H364.86ZM353.59,62,342.45,27.09,331.32,62Z" fill="#fff"/><path d="M44.18,144.4h-9.6V120L23.72,137.8H22.64L11.78,120V144.4H2.18v-42h9.6l11.4,18.66,11.4-18.66h9.6Z" fill="#d4bb66"/><path d="M83.78,137.8H68.18l-2.1,6.6H55.58l14.28-42H82.1l14.28,42H85.88Zm-2.88-9L76,113.38,71.06,128.8Z" fill="#d4bb66"/><path d="M121.94,130.6h-4.56v13.8h-9.6v-42h16.8A14.37,14.37,0,0,1,139,116.8,13.84,13.84,0,0,1,131.24,129l8.94,15.42H129.86Zm-4.56-8.4h7.2c2.64,0,4.8-2.34,4.8-5.4s-2.16-5.4-4.8-5.4h-7.2Z" fill="#d4bb66"/><path d="M175.52,144.4,162.08,125V144.4h-9.6v-42h9.6v18.24l12.84-18.24h10.92l-14.16,20.46,14.76,21.54Z" fill="#d4bb66"/><path d="M224.24,135.16v9.24h-26.4v-42h26.1v9.24h-16.5v7h15v9.12h-15v7.44Z" fill="#d4bb66"/><path d="M265.63,111.64h-10.8V144.4h-9.59V111.64h-10.8V102.4h31.19Z" fill="#d4bb66"/><path d="M287.23,102.4v42h-9.6v-42Z" fill="#d4bb66"/><path d="M335.23,102.4v42H328l-16.2-22.8v22.8h-9.59v-42h7.2l16.19,22.8V102.4Z" fill="#d4bb66"/><path d="M391.81,124.6c0,12.84-8.94,20.64-20.69,20.64-13.2,0-22.68-9.72-22.68-21.78a21.78,21.78,0,0,1,22-21.9,21.48,21.48,0,0,1,18.35,9.6l-8.16,4.68c-1.74-2.76-5.52-4.92-10.26-4.92-7.07,0-12.35,5.22-12.35,12.6,0,7.14,5,12.36,13.19,12.36,5.58,0,9.24-2.46,10.74-6.48H370.75V121h21.06Z" fill="#d4bb66"/></svg>