<svg id="Layer_1" data-name="Layer 1" xmlns="http://www.w3.org/2000/svg" viewBox="0 0 395.69 146.96"><path d="M28.36,63.4c0,7.5,3.92,12,10.35,12,6.16,0,9.48-4,9.48-11.53V1.61H76.3V64.07c0,22.47-13.92,34.87-37.2,34.87S1.45,85.55,1.45,63.4Z" fill="#fff"/><path d="M112.33,60.09c0,10.08,5,15.58,14.06,15.58s14.06-5.5,14.06-15.58V1.61h28.11V63.2c0,21.82-16.91,35.74-42.17,35.74S84.22,85,84.22,63.2V1.61h28.11Z" fill="#fff"/><path d="M175,97.28V1.61h21.81L233.76,51.2h.53V1.61h26.52V97.28H239.27l-37.2-50.39h-.53V97.28Z" fill="#fff"/><path d="M267.28,97.28V1.61h28.11V97.28Z" fill="#fff"/><path d="M360,78.25H330.83l-5,19H297.22L328.45,1.61h35.27l31.22,95.67H365ZM335.94,58.43h19l-9.22-34.74h-.53Z" fill="#fff"/><path d="M2.68,144.4v-40h8.05l11.4,25.37h.26l11.4-25.37h8v40H34.64V118.12h-.38l-9.47,21.09H19.64l-9.52-21.09H9.74V144.4Z" fill="#d4bb66"/><path d="M56.49,144.4l13.41-40h9.26l13.36,40H84.11L81,134.32H67.62L64.48,144.4Zm17.66-32.17-4.89,16H79.4l-4.9-16Z" fill="#d4bb66"/><path d="M137.13,117.12a11.75,11.75,0,0,1-7.26,11.25l8,16h-8.84l-7-14.8H115v14.8h-7.82v-40h16C132,104.41,137.13,109.44,137.13,117.12Zm-15.29,6.39c4.39,0,7.12-2.08,7.12-6.24s-2.81-6.48-7-6.48h-7v12.72Z" fill="#d4bb66"/><path d="M171.81,121.63l14.88,22.77h-9.52L166,127.14l-4.1,4.57V144.4H154v-40h7.91v17.72h.38l15.12-17.72h8.7Z" fill="#d4bb66"/><path d="M226.5,144.4H200.75v-40H226.5v6.7H208.6v9.94h16.85v6.27H208.6v10.37h17.9Z" fill="#d4bb66"/><path d="M251.25,144.4V111.26H239.91v-6.85h30.64v6.85H259.19V144.4Z" fill="#d4bb66"/><path d="M285.17,144.4v-40h7.91v40Z" fill="#d4bb66"/><path d="M311.5,144.4v-40h6.62l17.52,26H336v-26h7.5v40H336.9l-17.61-26.23H319V144.4Z" fill="#d4bb66"/><path d="M385.29,116.5c-.77-3.48-3.64-6-8-6-5.71,0-9,4.16-9,11.31v4.92c0,6.82,2.91,11.51,9.2,11.51,5.48,0,8.21-3.16,8.21-7v-2.4h-8.24v-6.07H393.2v7.94c0,7.77-5.1,14.45-15.82,14.45-11.49,0-17.11-7.59-17.11-18.37v-5c0-10.78,6.24-18.11,17.08-18.11,9.52,0,15,5.89,15.7,12.86Z" fill="#d4bb66"/></svg>